<svg version="1.1" id="Layer_1" xmlns="http://www.w3.org/2000/svg" xmlns:xlink="http://www.w3.org/1999/xlink" x="0px" y="0px"
	 width="100%" viewBox="0 0 640 640" enable-background="new 0 0 640 640" xml:space="preserve">
<path fill="#000000" opacity="0" stroke="none" 
	d="
M379.000000,641.000000 
	C252.666687,641.000000 126.833382,641.000000 1.000051,641.000000 
	C1.000034,427.666718 1.000034,214.333450 1.000017,1.000137 
	C214.333237,1.000091 427.666473,1.000091 640.999756,1.000046 
	C640.999878,214.333191 640.999878,427.666382 640.999939,640.999756 
	C553.833313,641.000000 466.666656,641.000000 379.000000,641.000000 
M160.788513,282.779297 
	C159.709808,284.412964 158.631119,286.046631 157.095413,288.372406 
	C159.417725,288.599030 161.243652,288.777191 163.524826,289.504150 
	C164.125900,290.874298 164.660873,292.278107 165.338333,293.609375 
	C171.576981,305.868683 179.396362,317.084839 192.677643,322.070465 
	C205.966980,327.059113 219.941895,329.163177 234.392761,325.648132 
	C235.922897,326.121552 237.453018,326.594971 239.037689,327.674805 
	C239.024719,328.080200 239.011749,328.485565 238.069214,329.018707 
	C230.582535,329.071655 223.092239,329.016113 215.612152,329.266205 
	C214.057831,329.318207 212.541382,330.502991 211.007462,331.165680 
	C211.676849,332.672943 211.989059,334.530457 213.070724,335.633423 
	C224.133545,346.914001 237.057800,351.478271 251.877884,344.043121 
	C263.227051,338.349335 273.965485,331.438202 285.273438,325.631500 
	C287.264465,327.378418 288.439514,327.217987 288.479004,324.284607 
	C288.515747,321.556885 288.006683,318.884949 292.076660,317.972412 
	C293.847778,317.575317 295.092102,314.828705 296.575653,313.149139 
	C295.165070,312.342926 293.703522,311.609741 292.376831,310.683350 
	C292.007690,310.425568 292.213196,309.411285 291.849457,309.065796 
	C291.006866,308.265411 289.977539,307.661591 288.391907,306.733978 
	C278.213135,300.777527 268.229095,294.451080 257.803223,288.964172 
	C246.389297,282.957275 234.567230,277.725830 222.805725,271.411163 
	C222.050583,270.672394 221.408157,269.503387 220.520401,269.270813 
	C217.061584,268.364716 213.544342,267.635712 210.012619,267.064880 
	C205.089096,266.269043 204.535431,265.054871 207.169250,260.946625 
	C207.620575,260.242645 207.058289,258.888824 206.993683,258.164886 
	C204.526382,259.478699 202.642426,261.366943 200.881516,261.258423 
	C194.897598,260.889771 188.957108,259.815979 182.503845,259.034332 
	C182.503845,259.034332 182.034088,258.872955 181.531265,258.294403 
	C174.303055,258.294403 167.074844,258.294403 159.244080,258.294403 
	C158.485367,264.853638 157.787552,270.706512 157.139587,276.564880 
	C156.820251,279.451996 157.927841,281.418884 160.995316,282.052856 
	C160.995316,282.052856 160.947861,282.094696 160.788513,282.779297 
M415.940247,326.875793 
	C424.160828,326.233337 432.381439,325.590881 441.465851,324.980682 
	C458.881409,322.605133 469.245941,311.121613 477.281281,296.889282 
	C481.647461,289.155853 485.008789,280.971283 483.844147,271.743927 
	C482.525696,261.297943 476.684937,256.752167 466.312225,258.520264 
	C459.778900,259.633881 453.365936,261.453735 446.380646,262.614624 
	C445.580475,261.686920 444.780304,260.759186 443.990692,259.843719 
	C438.618347,263.831238 438.618347,263.831238 440.894684,266.979309 
	C440.894684,266.979309 440.990936,267.163879 440.725311,267.735107 
	C435.975433,267.104889 431.179138,266.704315 426.493256,265.757416 
	C423.728943,265.198792 422.107971,264.751312 420.852570,268.271027 
	C420.084045,270.425751 417.115143,273.147766 415.059998,273.211365 
	C410.717194,273.345795 409.095612,276.171600 406.308624,279.145294 
	C404.963165,279.796082 403.577972,280.376221 402.278320,281.108368 
	C386.404053,290.050690 370.542358,299.015350 354.086914,308.254333 
	C351.576569,309.631805 348.930786,310.941040 349.650482,314.560303 
	C350.615753,319.414490 357.594391,320.003082 357.637390,325.687744 
	C357.640778,326.133057 359.863007,326.581543 361.068909,326.983795 
	C361.369690,327.084167 361.728577,327.010406 362.692810,327.219757 
	C372.738892,334.992981 383.623260,341.133545 395.660950,345.412262 
	C409.758575,350.423248 419.969269,346.701202 431.930664,335.042450 
	C432.857727,334.138855 433.871582,331.928741 433.443420,331.332520 
	C432.650482,330.228394 430.850555,329.378601 429.416229,329.289520 
	C424.618561,328.991669 419.797058,329.076935 414.955902,328.340851 
	C414.974396,327.891418 414.992859,327.441986 415.940247,326.875793 
M343.663727,394.223572 
	C346.896210,390.146667 346.428314,388.235077 341.650391,386.917999 
	C337.113922,385.667450 332.418549,384.925262 327.987915,383.395264 
	C326.405853,382.848938 324.352692,380.608429 324.407959,379.216370 
	C324.466309,377.746002 326.627655,376.149963 328.176758,375.034393 
	C328.975677,374.459076 330.464081,374.933960 331.599487,374.717194 
	C336.628326,373.757080 341.791718,373.172821 346.620728,371.584167 
	C351.789459,369.883728 352.261688,366.267242 348.033844,362.910248 
	C345.796936,361.134186 343.179352,359.582489 340.481445,358.703552 
	C336.707916,357.474152 332.719055,356.846313 328.783813,356.192871 
	C326.004211,355.731293 323.986816,354.798889 324.018463,351.575104 
	C324.050385,348.320984 326.149902,347.484589 328.913239,347.100220 
	C332.196869,346.643494 335.521698,346.176208 338.685364,345.232880 
	C343.955688,343.661346 344.674591,340.706421 340.331207,337.308380 
	C336.578491,334.372467 332.072174,332.418793 328.133209,329.692566 
	C326.554016,328.599518 324.655853,326.630035 324.607422,325.008606 
	C324.549713,323.078033 326.154938,320.977570 327.378021,319.181061 
	C327.966003,318.317352 329.380737,318.054779 330.336304,317.396881 
	C337.006897,312.804047 339.628113,305.880127 341.080841,298.358673 
	C342.196228,292.583649 338.807587,289.028473 334.741760,285.735321 
	C333.968536,285.109039 333.364563,282.872803 333.760376,282.487854 
	C334.659088,281.613892 336.286438,280.922699 337.514130,281.062988 
	C340.809906,281.439606 344.678040,281.998199 345.457367,278.143524 
	C346.107147,274.929565 345.536102,270.778473 343.917328,267.952179 
	C341.249146,263.293732 332.503052,262.993896 327.696320,266.727753 
	C322.209045,270.990234 327.555573,273.303284 329.376740,276.388397 
	C330.102142,277.617249 330.481293,279.696075 329.917297,280.849854 
	C329.404327,281.899292 327.446411,282.603729 326.041534,282.776001 
	C323.587280,283.076965 321.049408,283.037109 318.584229,282.779724 
	C317.111694,282.625977 314.856628,282.124878 314.480164,281.174866 
	C313.931396,279.790039 314.435181,277.722046 315.088898,276.202942 
	C315.720367,274.735535 317.432098,273.732422 318.061310,272.264709 
	C318.529480,271.172638 318.492554,269.369049 317.873871,268.394470 
	C315.574371,264.772125 308.851288,263.182281 304.296417,264.885376 
	C300.247833,266.399170 297.605896,270.667297 297.936493,275.160004 
	C298.276703,279.783173 300.965881,281.757690 305.626221,281.384094 
	C307.315796,281.248657 309.093658,282.214752 310.831238,282.678253 
	C310.010010,284.147186 309.528137,286.051910 308.304810,287.004395 
	C304.429321,290.021881 302.160553,293.625153 303.120300,298.615051 
	C304.751373,307.095123 308.368591,314.262390 316.143372,318.982788 
	C317.916962,320.059601 319.873901,322.906555 319.645264,324.665710 
	C319.380890,326.699646 317.069580,328.806366 315.156311,330.215088 
	C311.439911,332.951477 307.122009,334.900269 303.538116,337.778931 
	C300.125214,340.520294 301.147095,344.364990 305.358734,345.423676 
	C308.894714,346.312500 312.669220,346.339233 316.123413,347.428467 
	C317.766479,347.946594 319.939667,350.011200 319.993408,351.445679 
	C320.048615,352.918335 318.086670,354.959717 316.500946,355.863861 
	C314.873199,356.791992 312.567535,356.432343 310.673340,357.011658 
	C306.089172,358.413605 301.398926,359.675781 297.113220,361.743927 
	C295.413910,362.563995 293.626587,365.467682 293.794281,367.241730 
	C293.956116,368.953796 296.341858,371.359161 298.175323,371.839691 
	C303.590515,373.258972 309.193268,374.067932 314.768616,374.726440 
	C317.525696,375.052063 319.719452,375.386902 320.010010,378.690704 
	C320.320496,382.221313 318.197723,383.258209 315.211151,383.730682 
	C311.278320,384.352905 307.223236,384.765747 303.530670,386.116089 
	C301.551208,386.839966 299.323212,389.159760 298.933624,391.105133 
	C298.698669,392.278076 301.523651,394.837738 303.419922,395.503906 
	C307.466675,396.925507 311.918335,397.192657 315.968262,398.607819 
	C317.694397,399.211029 318.829590,401.505371 320.233337,403.031219 
	C318.796356,404.320587 317.526642,405.918121 315.876038,406.813904 
	C314.174103,407.737610 311.981506,407.726776 310.215607,408.569244 
	C306.366486,410.405579 306.091888,412.858276 309.553589,415.217194 
	C316.036682,419.634888 323.163788,420.876831 330.380432,417.525726 
	C332.957764,416.328888 334.781708,413.509674 336.949524,411.430969 
	C334.349457,409.966492 331.683258,408.605652 329.171173,407.003265 
	C327.312561,405.817749 324.478760,404.554657 324.147369,402.909515 
	C323.415131,399.274872 326.583008,398.631195 329.579254,398.036346 
	C334.117340,397.135376 338.568970,395.798767 343.663727,394.223572 
z"/>
<path fill="#F5BE0B" opacity="1.000000" stroke="none" 
	d="
M182.034088,258.872925 
	C182.034088,258.872955 182.503845,259.034332 183.063217,259.217773 
	C189.445999,261.072266 195.293869,262.666443 201.065063,264.501770 
	C201.881119,264.761322 202.323471,266.196014 202.711945,267.083923 
	C202.485107,267.081055 202.108902,267.336151 201.770294,267.434875 
	C193.608231,270.101166 190.679153,276.171722 193.626511,283.981323 
	C197.765640,294.948822 206.647552,299.341644 217.471115,301.020691 
	C220.591675,301.504761 223.685074,302.163910 227.102081,302.800751 
	C222.042389,311.375092 222.077972,315.073181 227.247650,320.326324 
	C227.160492,318.359650 227.117142,316.934601 227.030899,315.512146 
	C226.633545,308.958160 230.622955,304.223358 237.218597,303.890961 
	C240.003006,303.750641 242.820877,304.408295 245.630814,304.590912 
	C247.398727,304.705841 249.180176,304.612335 251.939423,304.612335 
	C250.655838,303.515228 250.343414,303.015289 249.964310,302.958221 
	C240.741272,301.569641 231.507843,300.250153 222.283203,298.871979 
	C213.846497,297.611511 205.221237,296.488129 199.625885,289.003143 
	C196.432083,284.730774 193.396072,279.909393 196.546722,274.331024 
	C199.509308,269.085663 204.848160,269.556732 209.862885,269.792938 
	C211.502792,269.870148 213.121292,270.380127 214.752060,270.678619 
	C217.474670,271.176941 220.199265,271.664398 222.923035,272.156433 
	C234.567230,277.725830 246.389297,282.957275 257.803223,288.964172 
	C268.229095,294.451080 278.213135,300.777527 288.787659,307.256165 
	C287.478912,307.938324 285.724243,308.441620 284.078308,308.201019 
	C275.315765,306.920166 266.580505,305.452942 257.835785,304.050232 
	C257.746704,304.597351 257.657593,305.144470 257.568481,305.691589 
	C269.500244,308.109863 281.432007,310.528137 293.363770,312.946411 
	C293.359650,313.606476 293.355499,314.266571 293.351379,314.926636 
	C281.919617,321.391113 269.174530,323.468475 255.806808,325.036804 
	C248.250107,324.990845 241.182480,325.007721 234.114868,325.024567 
	C219.941895,329.163177 205.966980,327.059113 192.677643,322.070465 
	C179.396362,317.084839 171.576981,305.868683 165.338333,293.609375 
	C164.660873,292.278107 164.125900,290.874298 163.304276,288.859985 
	C162.371765,286.175415 161.659821,284.135071 160.947861,282.094696 
	C160.947861,282.094696 160.995316,282.052856 161.009827,281.573242 
	C160.857773,278.461426 160.395554,275.808807 160.575562,273.200531 
	C161.377869,261.575500 167.069595,257.052307 178.594650,258.625183 
	C179.731232,258.780304 180.887146,258.793732 182.034088,258.872925 
z"/>
<path fill="#F3BD0C" opacity="1.000000" stroke="none" 
	d="
M343.360535,394.435425 
	C338.568970,395.798767 334.117340,397.135376 329.579254,398.036346 
	C326.583008,398.631195 323.415131,399.274872 324.147369,402.909515 
	C324.478760,404.554657 327.312561,405.817749 329.171173,407.003265 
	C331.683258,408.605652 334.349457,409.966492 336.949524,411.430969 
	C334.781708,413.509674 332.957764,416.328888 330.380432,417.525726 
	C323.163788,420.876831 316.036682,419.634888 309.553589,415.217194 
	C306.091888,412.858276 306.366486,410.405579 310.215607,408.569244 
	C311.981506,407.726776 314.174103,407.737610 315.876038,406.813904 
	C317.526642,405.918121 318.796356,404.320587 320.233337,403.031219 
	C318.829590,401.505371 317.694397,399.211029 315.968262,398.607819 
	C311.918335,397.192657 307.466675,396.925507 303.419922,395.503906 
	C301.523651,394.837738 298.698669,392.278076 298.933624,391.105133 
	C299.323212,389.159760 301.551208,386.839966 303.530670,386.116089 
	C307.223236,384.765747 311.278320,384.352905 315.211151,383.730682 
	C318.197723,383.258209 320.320496,382.221313 320.010010,378.690704 
	C319.719452,375.386902 317.525696,375.052063 314.768616,374.726440 
	C309.193268,374.067932 303.590515,373.258972 298.175323,371.839691 
	C296.341858,371.359161 293.956116,368.953796 293.794281,367.241730 
	C293.626587,365.467682 295.413910,362.563995 297.113220,361.743927 
	C301.398926,359.675781 306.089172,358.413605 310.673340,357.011658 
	C312.567535,356.432343 314.873199,356.791992 316.500946,355.863861 
	C318.086670,354.959717 320.048615,352.918335 319.993408,351.445679 
	C319.939667,350.011200 317.766479,347.946594 316.123413,347.428467 
	C312.669220,346.339233 308.894714,346.312500 305.358734,345.423676 
	C301.147095,344.364990 300.125214,340.520294 303.538116,337.778931 
	C307.122009,334.900269 311.439911,332.951477 315.156311,330.215088 
	C317.069580,328.806366 319.380890,326.699646 319.645264,324.665710 
	C319.873901,322.906555 317.916962,320.059601 316.143372,318.982788 
	C308.368591,314.262390 304.751373,307.095123 303.120300,298.615051 
	C302.160553,293.625153 304.429321,290.021881 308.304810,287.004395 
	C309.528137,286.051910 310.010010,284.147186 310.831238,282.678253 
	C309.093658,282.214752 307.315796,281.248657 305.626221,281.384094 
	C300.965881,281.757690 298.276703,279.783173 297.936493,275.160004 
	C297.605896,270.667297 300.247833,266.399170 304.296417,264.885376 
	C308.851288,263.182281 315.574371,264.772125 317.873871,268.394470 
	C318.492554,269.369049 318.529480,271.172638 318.061310,272.264709 
	C317.432098,273.732422 315.720367,274.735535 315.088898,276.202942 
	C314.435181,277.722046 313.931396,279.790039 314.480164,281.174866 
	C314.856628,282.124878 317.111694,282.625977 318.584229,282.779724 
	C321.049408,283.037109 323.587280,283.076965 326.041534,282.776001 
	C327.446411,282.603729 329.404327,281.899292 329.917297,280.849854 
	C330.481293,279.696075 330.102142,277.617249 329.376740,276.388397 
	C327.555573,273.303284 322.209045,270.990234 327.696320,266.727753 
	C332.503052,262.993896 341.249146,263.293732 343.917328,267.952179 
	C345.536102,270.778473 346.107147,274.929565 345.457367,278.143524 
	C344.678040,281.998199 340.809906,281.439606 337.514130,281.062988 
	C336.286438,280.922699 334.659088,281.613892 333.760376,282.487854 
	C333.364563,282.872803 333.968536,285.109039 334.741760,285.735321 
	C338.807587,289.028473 342.196228,292.583649 341.080841,298.358673 
	C339.628113,305.880127 337.006897,312.804047 330.336304,317.396881 
	C329.380737,318.054779 327.966003,318.317352 327.378021,319.181061 
	C326.154938,320.977570 324.549713,323.078033 324.607422,325.008606 
	C324.655853,326.630035 326.554016,328.599518 328.133209,329.692566 
	C332.072174,332.418793 336.578491,334.372467 340.331207,337.308380 
	C344.674591,340.706421 343.955688,343.661346 338.685364,345.232880 
	C335.521698,346.176208 332.196869,346.643494 328.913239,347.100220 
	C326.149902,347.484589 324.050385,348.320984 324.018463,351.575104 
	C323.986816,354.798889 326.004211,355.731293 328.783813,356.192871 
	C332.719055,356.846313 336.707916,357.474152 340.481445,358.703552 
	C343.179352,359.582489 345.796936,361.134186 348.033844,362.910248 
	C352.261688,366.267242 351.789459,369.883728 346.620728,371.584167 
	C341.791718,373.172821 336.628326,373.757080 331.599487,374.717194 
	C330.464081,374.933960 328.975677,374.459076 328.176758,375.034393 
	C326.627655,376.149963 324.466309,377.746002 324.407959,379.216370 
	C324.352692,380.608429 326.405853,382.848938 327.987915,383.395264 
	C332.418549,384.925262 337.113922,385.667450 341.650391,386.917999 
	C346.428314,388.235077 346.896210,390.146667 343.360535,394.435425 
z"/>
<path fill="#F6BF09" opacity="1.000000" stroke="none" 
	d="
M446.899017,262.956787 
	C453.365936,261.453735 459.778900,259.633881 466.312225,258.520264 
	C476.684937,256.752167 482.525696,261.297943 483.844147,271.743927 
	C485.008789,280.971283 481.647461,289.155853 477.281281,296.889282 
	C469.245941,311.121613 458.881409,322.605133 440.604706,324.916687 
	C430.746277,324.556732 421.749023,324.260773 412.430786,323.957581 
	C411.118195,324.293549 410.126495,324.636719 408.658325,324.947510 
	C401.298065,324.973511 394.414276,325.031921 387.144531,325.104614 
	C374.329926,323.170563 361.832153,321.439240 350.890991,314.819885 
	C350.952026,314.336517 351.013062,313.853149 351.074097,313.369781 
	C353.719543,312.536865 356.364960,311.703918 359.400940,310.912109 
	C362.861542,310.262421 365.931610,309.571625 369.438568,308.954559 
	C375.864319,308.263763 381.862213,307.563232 387.839508,306.716919 
	C394.021698,305.841583 400.159637,304.286011 406.360992,304.006714 
	C414.045349,303.660583 418.998322,310.362946 416.872528,317.243561 
	C416.620758,318.058380 416.306305,318.853821 415.910736,319.968994 
	C421.850281,318.043854 422.219452,314.160339 417.700989,302.486176 
	C421.070496,301.960754 424.272186,301.413635 427.488037,300.968506 
	C439.707062,299.277222 448.659637,292.323364 451.163361,282.533508 
	C453.269043,274.299988 449.531067,268.652191 440.990936,267.163879 
	C440.990936,267.163879 440.894684,266.979309 440.827332,266.600372 
	C442.806305,265.133240 444.852661,264.045013 446.899017,262.956787 
z"/>
<path fill="#F5BE0B" opacity="1.000000" stroke="none" 
	d="
M354.677399,307.974213 
	C370.542358,299.015350 386.404053,290.050690 402.278320,281.108368 
	C403.577972,280.376221 404.963165,279.796082 406.980896,278.926208 
	C412.801788,276.603790 417.800323,273.907104 423.139343,272.556580 
	C429.005859,271.072601 435.204132,270.105713 441.223938,270.257568 
	C446.663788,270.394745 450.075989,275.223572 448.818085,279.905853 
	C447.074615,286.395538 444.093994,292.485382 437.259003,294.941956 
	C432.145935,296.779663 426.751160,298.037781 421.377228,298.907898 
	C403.647552,301.778656 385.870392,304.355865 367.709167,307.012329 
	C364.556732,307.686798 361.806549,308.394775 358.660095,309.005493 
	C357.068329,308.596893 355.872864,308.285553 354.677399,307.974213 
z"/>
<path fill="#F1BB0B" opacity="1.000000" stroke="none" 
	d="
M414.984711,329.015411 
	C419.797058,329.076935 424.618561,328.991669 429.416229,329.289520 
	C430.850555,329.378601 432.650482,330.228394 433.443420,331.332520 
	C433.871582,331.928741 432.857727,334.138855 431.930664,335.042450 
	C419.969269,346.701202 409.758575,350.423248 395.660950,345.412262 
	C383.623260,341.133545 372.738892,334.992981 362.194702,326.820587 
	C360.549591,325.417908 359.402557,324.414398 357.462830,322.717346 
	C360.546204,322.957184 362.534210,322.952789 364.462616,323.289612 
	C372.370209,324.670807 380.210327,326.600159 388.168945,327.484375 
	C397.054535,328.471588 406.041748,328.544525 414.984711,329.015411 
z"/>
<path fill="#F1BB0B" opacity="1.000000" stroke="none" 
	d="
M284.975525,325.068542 
	C273.965485,331.438202 263.227051,338.349335 251.877884,344.043121 
	C237.057800,351.478271 224.133545,346.914001 213.070724,335.633423 
	C211.989059,334.530457 211.676849,332.672943 211.007462,331.165680 
	C212.541382,330.502991 214.057831,329.318207 215.612152,329.266205 
	C223.092239,329.016113 230.582535,329.071655 238.994324,329.031097 
	C250.077927,327.790649 260.245178,326.603729 270.390961,325.255157 
	C274.958099,324.648102 279.478027,323.688660 284.039734,323.030090 
	C284.249207,322.999847 284.659027,324.357330 284.975525,325.068542 
z"/>
<path fill="#2C1D0D" opacity="1.000000" stroke="none" 
	d="
M368.111450,307.045776 
	C385.870392,304.355865 403.647552,301.778656 421.377228,298.907898 
	C426.751160,298.037781 432.145935,296.779663 437.259003,294.941956 
	C444.093994,292.485382 447.074615,286.395538 448.818085,279.905853 
	C450.075989,275.223572 446.663788,270.394745 441.223938,270.257568 
	C435.204132,270.105713 429.005859,271.072601 423.139343,272.556580 
	C417.800323,273.907104 412.801788,276.603790 407.291809,278.741516 
	C409.095612,276.171600 410.717194,273.345795 415.059998,273.211365 
	C417.115143,273.147766 420.084045,270.425751 420.852570,268.271027 
	C422.107971,264.751312 423.728943,265.198792 426.493256,265.757416 
	C431.179138,266.704315 435.975433,267.104889 440.858124,267.449493 
	C449.531067,268.652191 453.269043,274.299988 451.163361,282.533508 
	C448.659637,292.323364 439.707062,299.277222 427.488037,300.968506 
	C424.272186,301.413635 421.070496,301.960754 417.700989,302.486176 
	C422.219452,314.160339 421.850281,318.043854 415.910736,319.968994 
	C416.306305,318.853821 416.620758,318.058380 416.872528,317.243561 
	C418.998322,310.362946 414.045349,303.660583 406.360992,304.006714 
	C400.159637,304.286011 394.021698,305.841583 387.839508,306.716919 
	C381.862213,307.563232 375.864319,308.263763 369.405457,308.694000 
	C368.660767,307.921722 368.386108,307.483765 368.111450,307.045776 
M425.495453,270.497192 
	C425.495453,270.497192 425.466095,270.431091 425.495453,270.497192 
z"/>
<path fill="#2C1D0D" opacity="1.000000" stroke="none" 
	d="
M222.864380,271.783813 
	C220.199265,271.664398 217.474670,271.176941 214.752060,270.678619 
	C213.121292,270.380127 211.502792,269.870148 209.862885,269.792938 
	C204.848160,269.556732 199.509308,269.085663 196.546722,274.331024 
	C193.396072,279.909393 196.432083,284.730774 199.625885,289.003143 
	C205.221237,296.488129 213.846497,297.611511 222.283203,298.871979 
	C231.507843,300.250153 240.741272,301.569641 249.964310,302.958221 
	C250.343414,303.015289 250.655838,303.515228 251.939423,304.612335 
	C249.180176,304.612335 247.398727,304.705841 245.630814,304.590912 
	C242.820877,304.408295 240.003006,303.750641 237.218597,303.890961 
	C230.622955,304.223358 226.633545,308.958160 227.030899,315.512146 
	C227.117142,316.934601 227.160492,318.359650 227.247650,320.326324 
	C222.077972,315.073181 222.042389,311.375092 227.102081,302.800751 
	C223.685074,302.163910 220.591675,301.504761 217.471115,301.020691 
	C206.647552,299.341644 197.765640,294.948822 193.626511,283.981323 
	C190.679153,276.171722 193.608231,270.101166 201.772430,267.605530 
	C202.113190,267.677429 201.990234,267.995117 201.952332,268.048401 
	C201.914413,268.101715 202.004288,268.006409 202.193878,267.889038 
	C202.632263,267.595001 202.817368,267.366730 202.938782,267.086792 
	C202.323471,266.196014 201.881119,264.761322 201.065063,264.501770 
	C195.293869,262.666443 189.445999,261.072266 183.311310,259.206329 
	C188.957108,259.815979 194.897598,260.889771 200.881516,261.258423 
	C202.642426,261.366943 204.526382,259.478699 206.993683,258.164886 
	C207.058289,258.888824 207.620575,260.242645 207.169250,260.946625 
	C204.535431,265.054871 205.089096,266.269043 210.012619,267.064880 
	C213.544342,267.635712 217.061584,268.364716 220.520401,269.270813 
	C221.408157,269.503387 222.050583,270.672394 222.864380,271.783813 
z"/>
<path fill="#2C1D0D" opacity="1.000000" stroke="none" 
	d="
M285.124481,325.350006 
	C284.659027,324.357330 284.249207,322.999847 284.039734,323.030090 
	C279.478027,323.688660 274.958099,324.648102 270.390961,325.255157 
	C260.245178,326.603729 250.077927,327.790649 239.459106,328.967224 
	C239.011749,328.485565 239.024719,328.080200 239.437027,327.212219 
	C245.322876,326.199646 250.809387,325.649658 256.295898,325.099640 
	C269.174530,323.468475 281.919617,321.391113 293.351379,314.926636 
	C293.355499,314.266571 293.359650,313.606476 293.363770,312.946411 
	C281.432007,310.528137 269.500244,308.109863 257.568481,305.691589 
	C257.657593,305.144470 257.746704,304.597351 257.835785,304.050232 
	C266.580505,305.452942 275.315765,306.920166 284.078308,308.201019 
	C285.724243,308.441620 287.478912,307.938324 289.103668,307.378204 
	C289.977539,307.661591 291.006866,308.265411 291.849457,309.065796 
	C292.213196,309.411285 292.007690,310.425568 292.376831,310.683350 
	C293.703522,311.609741 295.165070,312.342926 296.575653,313.149139 
	C295.092102,314.828705 293.847778,317.575317 292.076660,317.972412 
	C288.006683,318.884949 288.515747,321.556885 288.479004,324.284607 
	C288.439514,327.217987 287.264465,327.378418 285.124481,325.350006 
z"/>
<path fill="#2C1D0D" opacity="1.000000" stroke="none" 
	d="
M414.970306,328.678131 
	C406.041748,328.544525 397.054535,328.471588 388.168945,327.484375 
	C380.210327,326.600159 372.370209,324.670807 364.462616,323.289612 
	C362.534210,322.952789 360.546204,322.957184 357.462830,322.717346 
	C359.402557,324.414398 360.549591,325.417908 361.878662,326.719055 
	C361.728577,327.010406 361.369690,327.084167 361.068909,326.983795 
	C359.863007,326.581543 357.640778,326.133057 357.637390,325.687744 
	C357.594391,320.003082 350.615753,319.414490 349.650482,314.560303 
	C348.930786,310.941040 351.576569,309.631805 354.382141,308.114258 
	C355.872864,308.285553 357.068329,308.596893 358.626770,309.299072 
	C358.996613,310.083588 359.003510,310.477295 359.010437,310.871002 
	C356.364960,311.703918 353.719543,312.536865 351.074097,313.369781 
	C351.013062,313.853149 350.952026,314.336517 350.890991,314.819885 
	C361.832153,321.439240 374.329926,323.170563 387.529633,325.317078 
	C395.152069,325.614929 402.003448,325.714691 408.940552,326.111542 
	C410.389221,326.262115 411.752106,326.115570 413.381226,326.029297 
	C414.102051,326.390564 414.556671,326.691559 415.011322,326.992554 
	C414.992859,327.441986 414.974396,327.891418 414.970306,328.678131 
M355.833099,310.480896 
	C355.833099,310.480896 356.117493,310.560699 356.117493,310.560699 
	C356.117493,310.560699 355.943909,310.389923 355.833099,310.480896 
z"/>
<path fill="#2C1D0D" opacity="1.000000" stroke="none" 
	d="
M181.782684,258.583679 
	C180.887146,258.793732 179.731232,258.780304 178.594650,258.625183 
	C167.069595,257.052307 161.377869,261.575500 160.575562,273.200531 
	C160.395554,275.808807 160.857773,278.461426 160.981216,281.559753 
	C157.927841,281.418884 156.820251,279.451996 157.139587,276.564880 
	C157.787552,270.706512 158.485367,264.853638 159.244080,258.294403 
	C167.074844,258.294403 174.303055,258.294403 181.782684,258.583679 
z"/>
<path fill="#CFAD3B" opacity="1.000000" stroke="none" 
	d="
M415.475769,326.934174 
	C414.556671,326.691559 414.102051,326.390564 413.298828,325.698975 
	C412.884064,324.860535 412.817902,324.412689 412.751740,323.964813 
	C421.749023,324.260773 430.746277,324.556732 440.172791,324.900513 
	C432.381439,325.590881 424.160828,326.233337 415.475769,326.934174 
z"/>
<path fill="#CFAD3B" opacity="1.000000" stroke="none" 
	d="
M255.806808,325.036804 
	C250.809387,325.649658 245.322876,326.199646 239.409760,326.908997 
	C237.453018,326.594971 235.922897,326.121552 234.253815,325.336365 
	C241.182480,325.007721 248.250107,324.990845 255.806808,325.036804 
z"/>
<path fill="#2C1D0D" opacity="1.000000" stroke="none" 
	d="
M446.639832,262.785706 
	C444.852661,264.045013 442.806305,265.133240 440.723572,266.592133 
	C438.618347,263.831238 438.618347,263.831238 443.990692,259.843719 
	C444.780304,260.759186 445.580475,261.686920 446.639832,262.785706 
z"/>
<path fill="#2C1D0D" opacity="1.000000" stroke="none" 
	d="
M160.868195,282.437012 
	C161.659821,284.135071 162.371765,286.175415 163.076660,288.585571 
	C161.243652,288.777191 159.417725,288.599030 157.095413,288.372406 
	C158.631119,286.046631 159.709808,284.412964 160.868195,282.437012 
z"/>
<path fill="#000000" opacity="1.000000" stroke="none" 
	d="
M201.990234,267.995117 
	C201.990234,267.995117 202.113190,267.677429 202.111053,267.506775 
	C202.108902,267.336151 202.485107,267.081055 202.711945,267.083923 
	C202.817368,267.366730 202.632263,267.595001 202.191345,267.885559 
	C201.999222,267.999481 201.990234,267.995117 201.990234,267.995117 
z"/>
<path fill="#CFAD3B" opacity="1.000000" stroke="none" 
	d="
M408.854797,325.814423 
	C402.003448,325.714691 395.152069,325.614929 387.915588,325.302734 
	C394.414276,325.031921 401.298065,324.973511 408.589874,325.156952 
	C408.997894,325.398804 408.854797,325.814423 408.854797,325.814423 
z"/>
<path fill="#000000" opacity="1.000000" stroke="none" 
	d="
M359.400940,310.912109 
	C359.003510,310.477295 358.996613,310.083588 359.023041,309.396301 
	C361.806549,308.394775 364.556732,307.686798 367.709167,307.012329 
	C368.386108,307.483765 368.660767,307.921722 368.968567,308.620239 
	C365.931610,309.571625 362.861542,310.262421 359.400940,310.912109 
z"/>
<path fill="#000000" opacity="1.000000" stroke="none" 
	d="
M408.940552,326.111542 
	C408.854797,325.814423 408.997894,325.398804 409.066345,325.189331 
	C410.126495,324.636719 411.118195,324.293549 412.430786,323.957581 
	C412.817902,324.412689 412.884064,324.860535 413.032623,325.638733 
	C411.752106,326.115570 410.389221,326.262115 408.940552,326.111542 
z"/>
<path fill="#000000" opacity="1.000000" stroke="none" 
	d="
M425.480774,270.464142 
	C425.466095,270.431091 425.495453,270.497192 425.480774,270.464142 
z"/>
<path fill="#000000" opacity="1.000000" stroke="none" 
	d="
M202.001755,268.002930 
	C202.004288,268.006409 201.914413,268.101715 201.952332,268.048401 
	C201.990234,267.995117 201.999222,267.999481 202.001755,268.002930 
z"/>
<path fill="#000000" opacity="1.000000" stroke="none" 
	d="
M355.888489,310.435425 
	C355.943909,310.389923 356.117493,310.560699 356.117493,310.560699 
	C356.117493,310.560699 355.833099,310.480896 355.888489,310.435425 
z"/>
</svg>