<svg width="500" height="350" xmlns="http://www.w3.org/2000/svg">

 <g>
  <title>background</title>
  <rect fill="none" id="canvas_background" height="352" width="502" y="-1" x="-1"/>
 </g>
 <g>
  <title>Layer 1</title>
  <path id="svg_1" d="m243,353c-126.33331,0 -252.16662,0 -377.99995,0c-0.00002,-109.66663 -0.00002,-219.33326 -0.00003,-328.9999c207.33322,-33.00003 426.66645,-0.00003 639.99974,-0.00005c0.00012,109.66656 0.00012,219.33314 0.00018,328.99983c-87.16663,0.00012 -174.33328,0.00012 -261.99994,0.00012m-218.21149,-184.14781c-1.0787,0.8398 -2.15739,1.67961 -3.6931,2.8752c2.32231,0.1165 4.14824,0.20809 6.42942,0.58179c0.60107,0.70434 1.13604,1.42599 1.8135,2.11034c6.23865,6.30205 14.05803,12.06786 27.33931,14.63078c13.28934,2.56447 27.26425,3.6461 41.71512,1.83914c1.53014,0.24337 3.06026,0.48674 4.64493,1.04184c-0.01297,0.2084 -0.02594,0.41678 -0.96848,0.69085c-7.48667,0.02722 -14.97697,-0.00134 -22.45706,0.12723c-1.55432,0.02673 -3.07077,0.63578 -4.60469,0.97645c0.66939,0.77482 0.9816,1.7297 2.06326,2.29669c11.06282,5.79893 23.98708,8.14525 38.80716,4.32312c11.34917,-2.92697 22.08761,-6.47972 33.39556,-9.46473c1.99102,0.89803 3.16607,0.81556 3.20556,-0.69238c0.03675,-1.40222 -0.47232,-2.77576 3.59766,-3.24487c1.77112,-0.20413 3.01544,-1.61606 4.49899,-2.47946c-1.41058,-0.41444 -2.87213,-0.79135 -4.19882,-1.26757c-0.36914,-0.13251 -0.16363,-0.65392 -0.52737,-0.83152c-0.84259,-0.41145 -1.87192,-0.72185 -3.45755,-1.1987c-10.17877,-3.06199 -20.16282,-6.31418 -30.58869,-9.13479c-11.41392,-3.08793 -23.23599,-5.77721 -34.9975,-9.02335c-0.75514,-0.37977 -1.39756,-0.98071 -2.28532,-1.10027c-3.45882,-0.46579 -6.97606,-0.84055 -10.50778,-1.13399c-4.92352,-0.40911 -5.47719,-1.03327 -2.84337,-3.14517c0.45133,-0.36189 -0.11096,-1.05783 -0.17557,-1.42998c-2.4673,0.67538 -4.35125,1.64606 -6.11216,1.59027c-5.98392,-0.18951 -11.92441,-0.74151 -18.37767,-1.14332c0,0 -0.46976,-0.08296 -0.97259,-0.38037c-7.2282,0 -14.45642,0 -22.28718,0c-0.75871,3.37186 -1.45653,6.3806 -2.10449,9.39217c-0.31934,1.48416 0.78825,2.49525 3.85573,2.82116c0,0 -0.04746,0.02151 -0.20681,0.37344m255.15174,22.66835c8.22058,-0.33026 16.44119,-0.66053 25.5256,-0.97421c17.41556,-1.22118 27.78009,-7.12443 35.81543,-14.44073c4.36618,-3.97547 7.72751,-8.18285 6.56287,-12.92628c-1.31845,-5.3699 -7.15921,-7.7067 -17.53192,-6.7978c-6.53333,0.57247 -12.94629,1.50799 -19.93158,2.10476c-0.80018,-0.4769 -1.60035,-0.95381 -2.38996,-1.42442c-5.37234,2.04984 -5.37234,2.04984 -3.09601,3.66814c0,0 0.09626,0.09488 -0.16937,0.38853c-4.74988,-0.32397 -9.54617,-0.52989 -14.23205,-1.01665c-2.76432,-0.28717 -4.38529,-0.51721 -5.64069,1.29215c-0.76852,1.10766 -3.73743,2.50695 -5.79257,2.53964c-4.34281,0.06911 -5.96439,1.52175 -8.75138,3.05041c-1.34545,0.33454 -2.73065,0.63277 -4.0303,1.00914c-15.87427,4.59691 -31.73596,9.20531 -48.19141,13.95472c-2.51034,0.70811 -5.15612,1.38114 -4.43643,3.24166c0.96527,2.49536 7.94391,2.79793 7.98691,5.7202c0.00339,0.22893 2.22562,0.45947 3.43152,0.66625c0.30078,0.05161 0.65967,0.01369 1.6239,0.12131c10.04608,3.99592 20.93045,7.15256 32.96814,9.35208c14.09763,2.57596 24.30832,0.6626 36.26971,-5.33073c0.92707,-0.46451 1.94092,-1.60064 1.51276,-1.90714c-0.79294,-0.56759 -2.59287,-1.00443 -4.02719,-1.05023c-4.79767,-0.15311 -9.61917,-0.10928 -14.46033,-0.48767c0.0185,-0.23104 0.03696,-0.46207 0.98435,-0.75313m-72.27652,34.62096c3.23248,-2.09578 2.76458,-3.07846 -2.01334,-3.75552c-4.53647,-0.64286 -9.23184,-1.02439 -13.66248,-1.81091c-1.58206,-0.28084 -3.63522,-1.4326 -3.57995,-2.14821c0.05835,-0.75586 2.2197,-1.57632 3.7688,-2.1498c0.79892,-0.29574 2.28732,-0.05162 3.42273,-0.16306c5.02884,-0.49355 10.19223,-0.7939 15.02124,-1.61056c5.16873,-0.87414 5.64096,-2.73324 1.41311,-4.45894c-2.2369,-0.91301 -4.85449,-1.71068 -7.55239,-2.16251c-3.77353,-0.63199 -7.76239,-0.95473 -11.69764,-1.29064c-2.7796,-0.23728 -4.79699,-0.7166 -4.76535,-2.37383c0.03193,-1.67282 2.13144,-2.10277 4.89478,-2.30036c3.28363,-0.23479 6.60846,-0.475 9.77212,-0.95993c5.27033,-0.80787 5.98923,-2.32689 1.64585,-4.07369c-3.75272,-1.50924 -8.25904,-2.51356 -12.198,-3.915c-1.57919,-0.5619 -3.47736,-1.57433 -3.52579,-2.40785c-0.05771,-0.99244 1.54752,-2.07221 2.7706,-2.99573c0.58798,-0.444 2.00272,-0.57897 2.95828,-0.91718c6.6706,-2.361 9.29181,-5.92032 10.74454,-9.78683c1.11539,-2.96872 -2.27325,-4.7963 -6.33908,-6.48919c-0.77322,-0.32194 -1.3772,-1.47151 -0.98138,-1.6694c0.89871,-0.44927 2.52606,-0.80458 3.75375,-0.73246c3.29578,0.1936 7.16391,0.48075 7.94324,-1.50079c0.64978,-1.65218 0.07873,-3.7861 -1.54004,-5.23899c-2.66818,-2.39473 -11.41428,-2.54887 -16.22101,-0.62943c-5.48727,2.19118 -0.14075,3.38023 1.68042,4.96617c0.7254,0.63171 1.10455,1.70036 0.54056,2.29347c-0.51297,0.53948 -2.47089,0.9016 -3.87577,0.99016c-2.45425,0.15471 -4.99212,0.13423 -7.4573,0.00191c-1.47254,-0.07903 -3.7276,-0.33663 -4.10407,-0.82499c-0.54876,-0.71189 -0.04498,-1.77497 0.60874,-2.55588c0.63147,-0.75434 2.3432,-1.27001 2.97241,-2.0245c0.46817,-0.56139 0.43124,-1.48855 -0.18744,-1.98955c-2.2995,-1.8621 -9.02258,-2.67939 -13.57745,-1.80389c-4.04859,0.77819 -6.69052,2.97227 -6.35993,5.2818c0.34021,2.3766 3.02939,3.39162 7.68973,3.19957c1.68958,-0.06962 3.46744,0.42701 5.20502,0.66528c-0.82123,0.75513 -1.3031,1.73427 -2.52643,2.22391c-3.87549,1.55117 -6.14426,3.40348 -5.18451,5.9686c1.63107,4.35929 5.24829,8.04371 13.02307,10.47029c1.77359,0.55355 3.73053,2.01706 3.50189,2.92138c-0.26437,1.04557 -2.57568,2.12855 -4.48895,2.85272c-3.7164,1.40668 -8.0343,2.40848 -11.61819,3.88829c-3.41291,1.40923 -2.39103,3.38565 1.82061,3.92988c3.53598,0.45691 7.31049,0.47065 10.76468,1.03059c1.64307,0.26634 3.81626,1.32768 3.87,2.06509c0.0552,0.75704 -1.90674,1.80644 -3.49246,2.27122c-1.62775,0.47712 -3.93341,0.29224 -5.82761,0.59005c-4.58417,0.72069 -9.27441,1.36952 -13.56012,2.43268c-1.69931,0.42156 -3.48663,1.91424 -3.31894,2.82621c0.16184,0.88011 2.54758,2.11662 4.38104,2.36364c5.41519,0.7296 11.01795,1.14545 16.5933,1.48397c2.75708,0.16739 4.95083,0.33952 5.24139,2.03788c0.31049,1.81495 -1.81229,2.34798 -4.79886,2.59086c-3.93283,0.31987 -7.98791,0.53209 -11.68048,1.22625c-1.97946,0.37212 -4.20746,1.56464 -4.59705,2.56468c-0.23495,0.60297 2.59003,1.91879 4.4863,2.26125c4.04676,0.73079 8.49842,0.86812 12.54834,1.5956c1.72614,0.31009 2.86133,1.48952 4.26508,2.2739c-1.43698,0.66282 -2.7067,1.48405 -4.3573,1.94454c-1.70194,0.47484 -3.89453,0.46928 -5.66043,0.90235c-3.84912,0.944 -4.12372,2.20484 -0.66202,3.41746c6.48309,2.27098 13.6102,2.90941 20.82684,1.18674c2.57733,-0.61525 4.40128,-2.06451 6.56909,-3.13309c-2.60006,-0.75283 -5.26626,-1.45239 -7.77835,-2.27612c-1.85861,-0.60943 -4.69241,-1.25873 -5.0238,-2.10444c-0.73224,-1.86843 2.43564,-2.19933 5.43188,-2.50511c4.53809,-0.46316 8.98972,-1.15026 14.08448,-1.96001z" opacity="0" fill="#000000"/>
  <path stroke-width="0" id="svg_2" d="m109.499514,94.549993c0,0.00002 0.46976,0.1614 1.02913,0.34484c6.38278,1.8545 12.23065,3.44867 18.00184,5.284c0.81606,0.25955 1.25841,1.69424 1.64689,2.58215c-0.22684,-0.00287 -0.60305,0.25223 -0.94166,0.35095c-8.16206,2.6663 -11.09114,8.73685 -8.14378,16.54645c4.13913,10.9675 13.02104,15.36032 23.8446,17.03937c3.12057,0.48407 6.21396,1.14322 9.63097,1.78006c-5.05969,8.57434 -5.02411,12.27243 0.14557,17.52557c-0.08716,-1.96667 -0.13051,-3.39172 -0.21675,-4.81417c-0.39736,-6.55399 3.59205,-11.28879 10.1877,-11.62119c2.78441,-0.14032 5.60228,0.51734 8.41221,0.69995c1.76792,0.11493 3.54937,0.02142 6.30861,0.02142c-1.28358,-1.0971 -1.59601,-1.59704 -1.97511,-1.65411c-9.22304,-1.38858 -18.45647,-2.70807 -27.68111,-4.08624c-8.4367,-1.26047 -17.06196,-2.38385 -22.65731,-9.86884c-3.19381,-4.27237 -6.22982,-9.09375 -3.07917,-14.67212c2.96259,-5.24536 8.30144,-4.77429 13.31617,-4.53808c1.6399,0.07721 3.2584,0.58719 4.88917,0.88568c2.72261,0.49832 5.4472,0.98578 8.17097,1.47781c11.6442,5.5694 23.46627,10.80084 34.88019,16.80774c10.42587,5.48691 20.40992,11.81336 30.98444,18.292c-1.30875,0.68215 -3.06342,1.18545 -4.70935,0.94485c-8.76255,-1.28085 -17.4978,-2.74808 -26.24253,-4.15079c-0.08908,0.54712 -0.17819,1.09424 -0.2673,1.64136c11.93176,2.41827 23.86353,4.83655 35.79529,7.25482c-0.00412,0.66007 -0.00827,1.32016 -0.01239,1.98023c-11.43176,6.46447 -24.17685,8.54184 -37.54457,10.11016c-7.5567,-0.04596 -14.62433,-0.02908 -21.69194,-0.01223c-14.17298,4.13861 -28.14789,2.03454 -41.43723,-2.9541c-13.28128,-4.98563 -21.10066,-16.20179 -27.33931,-28.46109c-0.67746,-1.33127 -1.21243,-2.73508 -2.03405,-4.7494c-0.93251,-2.68457 -1.64446,-4.72491 -2.35642,-6.76528c0,0 0.04746,-0.04184 0.06197,-0.52146c-0.15206,-3.11181 -0.61428,-5.76443 -0.43427,-8.37271c0.80231,-11.62503 6.49403,-16.14822 18.01909,-14.57535c1.13658,0.15512 2.2925,0.16855 3.43944,0.24775z" fill="#F5BE0B"/>
  <path id="svg_3" d="m271.02564,230.26856c-4.79157,1.36334 -9.2432,2.69995 -13.78129,3.60092c-2.99624,0.59484 -6.16412,1.23852 -5.43188,4.87316c0.33139,1.64515 3.16519,2.90824 5.0238,4.09375c2.51209,1.60239 5.17829,2.96323 7.77835,4.42771c-2.16781,2.0787 -3.99176,4.89792 -6.56909,6.09476c-7.21664,3.3511 -14.34375,2.10916 -20.82684,-2.30854c-3.4617,-2.35891 -3.1871,-4.81161 0.66202,-6.64795c1.7659,-0.84246 3.95849,-0.83163 5.66043,-1.75534c1.6506,-0.89578 2.92032,-2.49331 4.3573,-3.78268c-1.40375,-1.52585 -2.53894,-3.82019 -4.26508,-4.4234c-4.04992,-1.41516 -8.50158,-1.68231 -12.54834,-3.10391c-1.89627,-0.66617 -4.72125,-3.22583 -4.4863,-4.39878c0.38959,-1.94537 2.61759,-4.26516 4.59705,-4.98904c3.69257,-1.35034 7.74765,-1.76318 11.68048,-2.38541c2.98657,-0.47247 5.10935,-1.50937 4.79886,-5.03998c-0.29056,-3.3038 -2.48431,-3.63864 -5.24139,-3.96426c-5.57535,-0.65851 -11.17811,-1.46747 -16.5933,-2.88675c-1.83346,-0.48053 -4.2192,-2.88589 -4.38104,-4.59796c-0.16769,-1.77405 1.61963,-4.67774 3.31894,-5.4978c4.28571,-2.06815 8.97595,-3.33032 13.56012,-4.73227c1.8942,-0.57932 4.19986,-0.21967 5.82761,-1.1478c1.58572,-0.90414 3.54766,-2.94552 3.49246,-4.41818c-0.05374,-1.43448 -2.22693,-3.49909 -3.87,-4.01721c-3.45419,-1.08924 -7.2287,-1.11597 -10.76468,-2.00479c-4.21164,-1.05869 -5.23352,-4.90339 -1.82061,-7.64475c3.58389,-2.87866 7.90179,-4.82745 11.61819,-7.56384c1.91327,-1.40872 4.22458,-3.51544 4.48895,-5.54938c0.22864,-1.75915 -1.7283,-4.60611 -3.50189,-5.68292c-7.77478,-4.7204 -11.392,-11.88767 -13.02307,-20.36774c-0.95975,-4.9899 1.30902,-8.59317 5.18451,-11.61066c1.22333,-0.95248 1.7052,-2.8572 2.52643,-4.32614c-1.73758,-0.4635 -3.51544,-1.42959 -5.20502,-1.29416c-4.66034,0.3736 -7.34952,-1.60092 -7.68973,-6.22409c-0.33059,-4.4927 2.31134,-8.76083 6.35993,-10.27462c4.55487,-1.7031 11.27795,-0.11325 13.57745,3.50909c0.61868,0.97458 0.65561,2.77817 0.18744,3.87024c-0.62921,1.46771 -2.34094,2.47083 -2.97241,3.93823c-0.65372,1.51911 -1.1575,3.5871 -0.60874,4.97193c0.37647,0.95001 2.63153,1.45111 4.10407,1.60485c2.46518,0.25739 5.00305,0.29724 7.4573,-0.00372c1.40488,-0.17227 3.3628,-0.87671 3.87577,-1.92615c0.56399,-1.15377 0.18484,-3.2326 -0.54056,-4.46145c-1.82117,-3.08512 -7.16769,-5.39817 -1.68042,-9.66065c4.80673,-3.73385 13.55283,-3.43402 16.22101,1.22443c1.61877,2.82629 2.18982,6.97739 1.54004,10.19134c-0.77933,3.85468 -4.64746,3.29609 -7.94324,2.91947c-1.22769,-0.14029 -2.85504,0.5509 -3.75375,1.42486c-0.39582,0.38495 0.20816,2.62119 0.98138,3.24747c4.06583,3.29315 7.45447,6.84833 6.33908,12.62335c-1.45273,7.52146 -4.07394,14.44538 -10.74454,19.03821c-0.95556,0.6579 -2.3703,0.92047 -2.95828,1.78418c-1.22308,1.79651 -2.82831,3.89697 -2.7706,5.82755c0.04843,1.62143 1.9466,3.59091 3.52579,4.68396c3.93896,2.72622 8.44528,4.6799 12.198,7.61581c4.34338,3.39804 3.62448,6.35297 -1.64585,7.9245c-3.16366,0.94333 -6.48849,1.41061 -9.77212,1.86734c-2.76334,0.38437 -4.86285,1.22076 -4.89478,4.47488c-0.03164,3.22379 1.98575,4.15619 4.76535,4.61777c3.93525,0.65344 7.92411,1.28128 11.69764,2.51068c2.6979,0.87894 5.31549,2.43064 7.55239,4.2067c4.22785,3.35699 3.75562,6.97348 -1.41311,8.67392c-4.82901,1.58865 -9.9924,2.17291 -15.02124,3.13302c-1.13541,0.21677 -2.62381,-0.25811 -3.42273,0.3172c-1.5491,1.11557 -3.71045,2.71161 -3.7688,4.18198c-0.05527,1.39206 1.99789,3.63257 3.57995,4.17889c4.43064,1.53 9.12601,2.27219 13.66248,3.52274c4.77792,1.31708 5.24582,3.22867 1.71015,7.51743z" fill="#F3BD0C"/>
  <path id="svg_4" d="m374.008029,98.809016c6.46692,-1.50306 12.87988,-3.32291 19.41321,-4.43653c10.37271,-1.76809 16.21347,2.77768 17.53192,13.22367c1.16464,9.22735 -2.19669,17.41192 -6.56287,25.14535c-8.03534,14.23233 -18.39987,25.71585 -36.67657,28.02741c-9.85843,-0.35996 -18.85569,-0.65592 -28.17392,-0.95911c-1.31259,0.33597 -2.3043,0.67914 -3.77247,0.98993c-7.36025,0.026 -14.24404,0.08441 -21.51379,0.1571c-12.8146,-1.93405 -25.31238,-3.66537 -36.25354,-10.28473c0.06104,-0.48336 0.12207,-0.96673 0.18311,-1.4501c2.64544,-0.83292 5.29086,-1.66586 8.32684,-2.45767c3.4606,-0.64969 6.53067,-1.34049 10.03763,-1.95755c6.42575,-0.6908 12.42364,-1.39133 18.40094,-2.23764c6.18219,-0.87534 12.32013,-2.43091 18.52148,-2.71021c7.68436,-0.34613 12.63733,6.35624 10.51154,13.23685c-0.25177,0.81482 -0.56622,1.61026 -0.96179,2.72543c5.93954,-1.92514 6.30871,-5.80865 1.79025,-17.48281c3.36951,-0.52543 6.5712,-1.07255 9.78705,-1.51767c12.21902,-1.69129 21.1716,-8.64515 23.67532,-18.435c2.10568,-8.23352 -1.63229,-13.88132 -10.17242,-15.36963c0,0 -0.09626,-0.18457 -0.16361,-0.56351c1.97898,-1.46713 4.02533,-2.55536 6.07169,-3.64358z" fill="#F6BF09"/>
  <path id="svg_5" d="m282.000001,143.732297c15.86496,-8.95886 31.72665,-17.92352 47.60092,-26.86584c1.29965,-0.73215 2.68485,-1.31229 4.70258,-2.18216c5.82089,-2.32242 10.81942,-5.01911 16.15844,-6.36963c5.86652,-1.48398 12.06479,-2.45087 18.0846,-2.29901c5.43985,0.13718 8.85205,4.966 7.59414,9.64828c-1.74347,6.48969 -4.72409,12.57953 -11.55908,15.03611c-5.11306,1.8377 -10.50784,3.09582 -15.88177,3.96594c-17.72968,2.87076 -35.50684,5.44796 -53.66806,8.10443c-3.15244,0.67447 -5.90262,1.38244 -9.04907,1.99316c-1.59177,-0.4086 -2.78724,-0.71994 -3.9827,-1.03128z" fill="#F5BE0B"/>
  <path id="svg_6" d="m341.52188,165.298064c4.81235,0.06152 9.63385,-0.02374 14.43152,0.27411c1.43432,0.08908 3.23425,0.93887 4.02719,2.043c0.42816,0.59622 -0.58569,2.80633 -1.51276,3.70993c-11.96139,11.65875 -22.17208,15.3808 -36.26971,10.36981c-12.03769,-4.27871 -22.92206,-10.41928 -33.46625,-18.59167c-1.64511,-1.40268 -2.79214,-2.40619 -4.73187,-4.10324c3.08337,0.23983 5.07138,0.23544 6.99979,0.57226c7.90759,1.3812 15.74771,3.31055 23.70633,4.19477c8.88558,0.98721 17.8728,1.06015 26.81576,1.53103z" fill="#F1BB0B"/>
  <path id="svg_7" d="m211.968068,161.038938c-11.01004,6.36966 -21.74848,13.28079 -33.09765,18.97458c-14.82008,7.43515 -27.74434,2.87088 -38.80716,-8.4097c-1.08166,-1.10296 -1.39387,-2.96048 -2.06326,-4.46774c1.53392,-0.66269 3.05037,-1.84747 4.60469,-1.89947c7.48009,-0.2501 14.97039,-0.19455 23.38217,-0.23511c11.08361,-1.24045 21.25086,-2.42737 31.39664,-3.77594c4.56714,-0.60706 9.08707,-1.5665 13.64877,-2.22507c0.20948,-0.03024 0.6193,1.32724 0.9358,2.03845z" fill="#F1BB0B"/>
  <path id="svg_17" d="m201.99023,267.99512c0,0 0.12296,-0.31769 0.12082,-0.48834c-0.00215,-0.17063 0.37406,-0.42573 0.6009,-0.42286c0.10542,0.28281 -0.07969,0.51108 -0.5206,0.80164c-0.19213,0.11392 -0.20112,0.10956 -0.20112,0.10956z" fill="#000000"/>
  <path id="svg_18" d="m408.8548,325.81442c-6.85135,-0.09973 -13.70273,-0.19949 -20.93921,-0.51169c6.49869,-0.27081 13.38248,-0.32922 20.67428,-0.14578c0.40802,0.24185 0.26493,0.65747 0.26493,0.65747z" fill="#CFAD3B"/>
  <path id="svg_21" d="m425.48077,270.46414c-0.01468,-0.03305 0.01468,0.03305 0,0z" fill="#000000"/>
  <path id="svg_22" d="m202.00176,268.00293c0.00253,0.00348 -0.08735,0.09879 -0.04943,0.04547c0.0379,-0.05328 0.04689,-0.04892 0.04943,-0.04547z" fill="#000000"/>
  <path id="svg_23" d="m355.88849,310.43543c0.05542,-0.04551 0.229,0.12527 0.229,0.12527c0,0 -0.28439,-0.0798 -0.229,-0.12527z" fill="#000000"/>
  <text font-weight="bold" font-style="normal" stroke="null" transform="matrix(0.9408297332212072,0,0,1,-170.7715083800689,0) " xml:space="preserve" text-anchor="start" font-family="Montserrat, sans-serif" font-size="35" id="svg_24" y="295.249994" x="194.920733" stroke-opacity="null" stroke-width="0" fill="#f5be0b">СТРОИТЕЛЬНАЯ КОМПАНИЯ</text>
 </g>
</svg>